<svg xmlns="http://www.w3.org/2000/svg" viewBox="0 0 160 380" width="160" height="380" xmlns:c2pa="http://c2pa.org/manifest"><metadata><c2pa:manifest>AAAWgmp1bWIAAAAeanVtZGMycGEAEQAQgAAAqgA4m3EDYzJwYQAAABZcanVtYgAAAEdqdW1kYzJtYQARABCAAACqADibcQN1cm46YzJwYTo2NDkzMWY3ZC03ZTk4LTRjNTAtOWRjZi0yYjE2Y2E5NWFhZjEAAAADl2p1bWIAAAApanVtZGMyYXMAEQAQgAAAqgA4m3EDYzJwYS5hc3NlcnRpb25zAAAAALxqdW1iAAAARGp1bWRjYm9yABEAEIAAAKoAOJtxE2MycGEuaW5ncmVkaWVudC52MwAAAAAYYzJzaC6e77dXhCpsLop/t3s3JrQAAABwY2JvcqNpZGM6Zm9ybWF0bWltYWdlL3N2Zyt4bWxqaW5zdGFuY2VJRHgseG1wOmlpZDpmZjg3ZWIzNy1mYWM3LTQ5ODctODU2ZC00MGYzNWJmZGM5NjJscmVsYXRpb25zaGlwaHBhcmVudE9mAAAB4mp1bWIAAABBanVtZGNib3IAEQAQgAAAqgA4m3ETYzJwYS5hY3Rpb25zLnYyAAAAABhjMnNokDKQ+kJfS7feZ8YA1CnLegAAAZljYm9yomdhY3Rpb25zgqJmYWN0aW9ua2MycGEub3BlbmVkanBhcmFtZXRlcnOha2luZ3JlZGllbnRzgaJjdXJseC1zZWxmI2p1bWJmPWMycGEuYXNzZXJ0aW9ucy9jMnBhLmluZ3JlZGllbnQudjNkaGFzaFggB98S9fVi58EhxPoI7jISXkHHawaVICgm2SICtuE2fAukZmFjdGlvbngdY29tLmFudGhyb3BpYy5jbGF1ZGUucHJvdmlkZWRqcGFyYW1ldGVyc6F4H2NvbS5hbnRocm9waWMub3JpZ2luLWNvbmZpZGVuY2VndW5rbm93bmtkZXNjcmlwdGlvbnhmQ2xhdWRlIHByb3ZpZGVkIHRoaXMgZmlsZSBhdCB0aGUgcmVxdWVzdCBvZiBhIHVzZXIgYW5kIG1heSBoYXZlIGNyZWF0ZWQgb3IgbW9kaWZpZWQgdGhlIGZpbGUgY29udGVudHMubXNvZnR3YXJlQWdlbnShZG5hbWVmQ2xhdWRlcmFsbEFjdGlvbnNJbmNsdWRlZPUAAADIanVtYgAAAEBqdW1kY2JvcgARABCAAACqADibcRNjMnBhLmhhc2guZGF0YQAAAAAYYzJzaNn48KSeRFb0+dDmIZIDcZgAAACAY2JvcqVjYWxnZnNoYTI1NmNwYWRNAAAAAAAAAAAAAAAAAGRoYXNoWCCibjgqJPMfcss39kxqUMFDCSLqBz6pgVINLCuvG/gTKGRuYW1lbmp1bWJmIG1hbmlmZXN0amV4Y2x1c2lvbnOBomVzdGFydBiWZmxlbmd0aBkeBAAAAj5qdW1iAAAAJ2p1bWRjMmNsABEAEIAAAKoAOJtxA2MycGEuY2xhaW0udjIAAAACD2Nib3KlY2FsZ2ZzaGEyNTZpc2lnbmF0dXJleE1zZWxmI2p1bWJmPS9jMnBhL3VybjpjMnBhOjY0OTMxZjdkLTdlOTgtNGM1MC05ZGNmLTJiMTZjYTk1YWFmMS9jMnBhLnNpZ25hdHVyZWppbnN0YW5jZUlEeCx4bXA6aWlkOjM0M2U1ZTU3LTUxMzgtNGM2YS05YTUwLWJhNjBlZmJhZjAyY3JjcmVhdGVkX2Fzc2VydGlvbnODomN1cmx4LXNlbGYjanVtYmY9YzJwYS5hc3NlcnRpb25zL2MycGEuaW5ncmVkaWVudC52M2RoYXNoWCAH3xL19WLnwSHE+gjuMhJeQcdrBpUgKCbZIgK24TZ8C6JjdXJseCpzZWxmI2p1bWJmPWMycGEuYXNzZXJ0aW9ucy9jMnBhLmFjdGlvbnMudjJkaGFzaFgg22NZt65+lkZOb3aKJvmiLmzLpbontK4FEAnCbFf7FQuiY3VybHgpc2VsZiNqdW1iZj1jMnBhLmFzc2VydGlvbnMvYzJwYS5oYXNoLmRhdGFkaGFzaFggDZ48/w+Bz7XXYIUlbmn83SUM8ctzs9H1wV12uZMYbmx0Y2xhaW1fZ2VuZXJhdG9yX2luZm+jZG5hbWVvQW50aHJvcGljIEZpbGVzZ3ZlcnNpb25lMS4wLjBrc3BlY1ZlcnNpb25lMi40LjAAABA4anVtYgAAAChqdW1kYzJjcwARABCAAACqADibcQNjMnBhLnNpZ25hdHVyZQAAABAIY2JvctKEWQISogEmGCFZAgowggIGMIIBjaADAgECAhRA5aAK7sI50L64g/oGQgU9Z1UTADAKBggqhkjOPQQDAzBJMRcwFQYDVQQKEw5BbnRocm9waWMsIFBCQzEuMCwGA1UEAxMlQW50aHJvcGljIENvbnRlbnQgQ3JlZGVudGlhbHMgUm9vdCBDQTAeFw0yNjA4MDcxODQzNTZaFw0yODA4MDYxOTQzNTZaMEQxFzAVBgNVBAoTDkFudGhyb3BpYywgUEJDMSkwJwYDVQQDEyBBbnRocm9waWMgQ2xhdWRlIENvbnRlbnQgU2lnbmluZzBZMBMGByqGSM49AgEGCCqGSM49AwEHA0IABJh6CmvLUBgFFNU0vUKlOVtE6djd17L5SuwX0LemFisBM3dkd/3cyjxFA3Qo5S46fX0/ihY0VZ7mfb9KF703t5OjWDBWMA4GA1UdDwEB/wQEAwIHgDAVBgNVHSUEDjAMBgorBgEEAYPoXgIBMAwGA1UdEwEB/wQCMAAwHwYDVR0jBBgwFoAUzlHiBIFOZFsj+OPEz5o+nMHXXMIwCgYIKoZIzj0EAwMDZwAwZAIwMXMdFJ4BetLLVY7ORuE9noqbbAZOZn/aArXyTwFAZfKrPzxF2vPoJNf1+UCdg1XGAjBwX1zd9WGqYkqmL5SFqw1QySjr1zJfpJM9+1rdDwSPLMOPOjKuiXjoU/pUUeG9RwmhY3BhZFkNngAAAAAAAAAAAAAAAAAAAAAAAAAAAAAAAAAAAAAAAAAAAAAAAAAAAAAAAAAAAAAAAAAAAAAAAAAAAAAAAAAAAAAAAAAAAAAAAAAAAAAAAAAAAAAAAAAAAAAAAAAAAAAAAAAAAAAAAAAAAAAAAAAAAAAAAAAAAAAAAAAAAAAAAAAAAAAAAAAAAAAAAAAAAAAAAAAAAAAAAAAAAAAAAAAAAAAAAAAAAAAAAAAAAAAAAAAAAAAAAAAAAAAAAAAAAAAAAAAAAAAAAAAAAAAAAAAAAAAAAAAAAAAAAAAAAAAAAAAAAAAAAAAAAAAAAAAAAAAAAAAAAAAAAAAAAAAAAAAAAAAAAAAAAAAAAAAAAAAAAAAAAAAAAAAAAAAAAAAAAAAAAAAAAAAAAAAAAAAAAAAAAAAAAAAAAAAAAAAAAAAAAAAAAAAAAAAAAAAAAAAAAAAAAAAAAAAAAAAAAAAAAAAAAAAAAAAAAAAAAAAAAAAAAAAAAAAAAAAAAAAAAAAAAAAAAAAAAAAAAAAAAAAAAAAAAAAAAAAAAAAAAAAAAAAAAAAAAAAAAAAAAAAAAAAAAAAAAAAAAAAAAAAAAAAAAAAAAAAAAAAAAAAAAAAAAAAAAAAAAAAAAAAAAAAAAAAAAAAAAAAAAAAAAAAAAAAAAAAAAAAAAAAAAAAAAAAAAAAAAAAAAAAAAAAAAAAAAAAAAAAAAAAAAAAAAAAAAAAAAAAAAAAAAAAAAAAAAAAAAAAAAAAAAAAAAAAAAAAAAAAAAAAAAAAAAAAAAAAAAAAAAAAAAAAAAAAAAAAAAAAAAAAAAAAAAAAAAAAAAAAAAAAAAAAAAAAAAAAAAAAAAAAAAAAAAAAAAAAAAAAAAAAAAAAAAAAAAAAAAAAAAAAAAAAAAAAAAAAAAAAAAAAAAAAAAAAAAAAAAAAAAAAAAAAAAAAAAAAAAAAAAAAAAAAAAAAAAAAAAAAAAAAAAAAAAAAAAAAAAAAAAAAAAAAAAAAAAAAAAAAAAAAAAAAAAAAAAAAAAAAAAAAAAAAAAAAAAAAAAAAAAAAAAAAAAAAAAAAAAAAAAAAAAAAAAAAAAAAAAAAAAAAAAAAAAAAAAAAAAAAAAAAAAAAAAAAAAAAAAAAAAAAAAAAAAAAAAAAAAAAAAAAAAAAAAAAAAAAAAAAAAAAAAAAAAAAAAAAAAAAAAAAAAAAAAAAAAAAAAAAAAAAAAAAAAAAAAAAAAAAAAAAAAAAAAAAAAAAAAAAAAAAAAAAAAAAAAAAAAAAAAAAAAAAAAAAAAAAAAAAAAAAAAAAAAAAAAAAAAAAAAAAAAAAAAAAAAAAAAAAAAAAAAAAAAAAAAAAAAAAAAAAAAAAAAAAAAAAAAAAAAAAAAAAAAAAAAAAAAAAAAAAAAAAAAAAAAAAAAAAAAAAAAAAAAAAAAAAAAAAAAAAAAAAAAAAAAAAAAAAAAAAAAAAAAAAAAAAAAAAAAAAAAAAAAAAAAAAAAAAAAAAAAAAAAAAAAAAAAAAAAAAAAAAAAAAAAAAAAAAAAAAAAAAAAAAAAAAAAAAAAAAAAAAAAAAAAAAAAAAAAAAAAAAAAAAAAAAAAAAAAAAAAAAAAAAAAAAAAAAAAAAAAAAAAAAAAAAAAAAAAAAAAAAAAAAAAAAAAAAAAAAAAAAAAAAAAAAAAAAAAAAAAAAAAAAAAAAAAAAAAAAAAAAAAAAAAAAAAAAAAAAAAAAAAAAAAAAAAAAAAAAAAAAAAAAAAAAAAAAAAAAAAAAAAAAAAAAAAAAAAAAAAAAAAAAAAAAAAAAAAAAAAAAAAAAAAAAAAAAAAAAAAAAAAAAAAAAAAAAAAAAAAAAAAAAAAAAAAAAAAAAAAAAAAAAAAAAAAAAAAAAAAAAAAAAAAAAAAAAAAAAAAAAAAAAAAAAAAAAAAAAAAAAAAAAAAAAAAAAAAAAAAAAAAAAAAAAAAAAAAAAAAAAAAAAAAAAAAAAAAAAAAAAAAAAAAAAAAAAAAAAAAAAAAAAAAAAAAAAAAAAAAAAAAAAAAAAAAAAAAAAAAAAAAAAAAAAAAAAAAAAAAAAAAAAAAAAAAAAAAAAAAAAAAAAAAAAAAAAAAAAAAAAAAAAAAAAAAAAAAAAAAAAAAAAAAAAAAAAAAAAAAAAAAAAAAAAAAAAAAAAAAAAAAAAAAAAAAAAAAAAAAAAAAAAAAAAAAAAAAAAAAAAAAAAAAAAAAAAAAAAAAAAAAAAAAAAAAAAAAAAAAAAAAAAAAAAAAAAAAAAAAAAAAAAAAAAAAAAAAAAAAAAAAAAAAAAAAAAAAAAAAAAAAAAAAAAAAAAAAAAAAAAAAAAAAAAAAAAAAAAAAAAAAAAAAAAAAAAAAAAAAAAAAAAAAAAAAAAAAAAAAAAAAAAAAAAAAAAAAAAAAAAAAAAAAAAAAAAAAAAAAAAAAAAAAAAAAAAAAAAAAAAAAAAAAAAAAAAAAAAAAAAAAAAAAAAAAAAAAAAAAAAAAAAAAAAAAAAAAAAAAAAAAAAAAAAAAAAAAAAAAAAAAAAAAAAAAAAAAAAAAAAAAAAAAAAAAAAAAAAAAAAAAAAAAAAAAAAAAAAAAAAAAAAAAAAAAAAAAAAAAAAAAAAAAAAAAAAAAAAAAAAAAAAAAAAAAAAAAAAAAAAAAAAAAAAAAAAAAAAAAAAAAAAAAAAAAAAAAAAAAAAAAAAAAAAAAAAAAAAAAAAAAAAAAAAAAAAAAAAAAAAAAAAAAAAAAAAAAAAAAAAAAAAAAAAAAAAAAAAAAAAAAAAAAAAAAAAAAAAAAAAAAAAAAAAAAAAAAAAAAAAAAAAAAAAAAAAAAAAAAAAAAAAAAAAAAAAAAAAAAAAAAAAAAAAAAAAAAAAAAAAAAAAAAAAAAAAAAAAAAAAAAAAAAAAAAAAAAAAAAAAAAAAAAAAAAAAAAAAAAAAAAAAAAAAAAAAAAAAAAAAAAAAAAAAAAAAAAAAAAAAAAAAAAAAAAAAAAAAAAAAAAAAAAAAAAAAAAAAAAAAAAAAAAAAAAAAAAAAAAAAAAAAAAAAAAAAAAAAAAAAAAAAAAAAAAAAAAAAAAAAAAAAAAAAAAAAAAAAAAAAAAAAAAAAAAAAAAAAAAAAAAAAAAAAAAAAAAAAAAAAAAAAAAAAAAAAAAAAAAAAAAAAAAAAAAAAAAAAAAAAAAAAAAAAAAAAAAAAAAAAAAAAAAAAAAAAAAAAAAAAAAAAAAAAAAAAAAAAAAAAAAAAAAAAAAAAAAAAAAAAAAAAAAAAAAAAAAAAAAAAAAAAAAAAAAAAAAAAAAAAAAAAAAAAAAAAAAAAAAAAAAAAAAAAAAAAAAAAAAAAAAAAAAAAAAAAAAAAAAAAAAAAAAAAAAAAAAAAAAAAAAAAAAAAAAAAAAAAAAAAAAAAAAAAAAAAAAAAAAAAAAAAAAAAAAAAAAAAAAAAAAAAAAAAAAAAAAAAAAAAAAAAAAAAAAAAAAAAAAAAAAAAAAAAAAAAAAAAAAAAAAAAAAAAAAAAAAAAAAAAAAAAAAAAAAAAAAAAAAAAAAAAAAAAAAAAAAAAAAAAAAAAAAAAAAAAAAAAAAAAAAAAAAAAAAAAAAAAAAAAAAAAAAAAAAAAAAAAAAAAAAAAAAAAAAAAAAAAAAAAAAAAAAAAAAAAAAAAAAAAAAAAAAAAAAAAAAAAAAAAAAAAAAAAAAAAAAAAAAAAAAAAAAAAAAAAAAAAAAAAAAAAAAAAAAAAAAAAAAAAAAAAAAAAAAAAAAAAAAAAAAAAAAAAAAAAAAAAAAAAAAAAAAAAAAAAAAAAAAAAAAAAAAAAAAAAAAAAAAAAAAAAAAAAAAAAAAAAAAAAAAAAAAAAAAAAAAAAAAAAAAAAAAAAAAAAAAAAAAAAAAAAAAAAAAAAAAAAAAAAAAAAAAAAAAAAAAAAAAAAAAAAAAAAAAAAAAAAAAAAAAAAAAAAAAAAAAAAAAAAAAAAAAAAAAAAAAAAAAAAAAAAAAAAAAAAAAAAAAAAAAAAAAAAAAAAAAAAAAAAAAAAAAAAAAAAAAAAAAAAAAAAAAAAAAAAAAAAAAAAAAAAAAAAAAAAAAAAAAAAAAAAAAAAAAAAAAAAAAAAAAAAAAAAAAAAAAAAAAAAAAAAAAAAAAAAAAAAAAAAAAAAAAAAAAAAAAAAAAAAAAAAAAAAAAAAAAAAAAAAAAAAAAAAAAAAAAAAAAAAAAAAAAAAAAAAAAAAAAAAAAAAAAAAAAAAAAAAAAAAAAAAAAAAAAAAAAAAAAAAAAAAAAAAAAAAAAAAAAAAAAAAAAAAAAAAAAAAAAAAAAAAAAAAAAAAAAAAAAAAAAAAAAAAAAAAAAAAAAAAAAAAAAAAAAAAAAAAAAAAAAAAAAAAAAAAAAAAAAAAAAAAAAAAAAAAAAAAAAAAAAAAAAAAAAAAAAAAAAAAAAAAAAAAAAAAAAAAAAAAAAAAAAAAAAAAAAAAAAAAAAAAAAAAAAAAAAAAAAAAAAAAAAAAAAAAAAAAAAAAAAAAAAAAAAAAAAAAAAAAAAAAAAAAAAAAAAAAAAAAAAAAAAAAAAAAAAAAAAAAAAAAAAAAAAAAAAAAAAAAAAAAAAAAAAAAAAAAAAAAAAAAAAAAAAAAAAAAAAAAAAAAAAAAAAAAAAAAAAAAAAAAAAAAAAAAAAAAAAAAAAAAAAAAAAAAAAAAAAPZYQB+ZZi/Y0Q3O1V0s+eEZBgYzhYS2zjxIQxKG244KfWzNDrnjEY5J/pz7bT13Oe8iNA/6hvzdttS7YbrFDA7/L/8=</c2pa:manifest></metadata>
<defs>
 <linearGradient id="fe" x1="0" y1="0" x2="1" y2="0">
  <stop offset="0" stop-color="#d9d0d6"/><stop offset=".45" stop-color="#f7f2ee"/><stop offset=".55" stop-color="#e9e1e3"/><stop offset="1" stop-color="#b9adb6"/>
 </linearGradient>
 <linearGradient id="au" x1="0" y1="0" x2="1" y2="0">
  <stop offset="0" stop-color="#7a5418"/><stop offset=".35" stop-color="#e8c56a"/><stop offset=".55" stop-color="#fff0b8"/><stop offset=".8" stop-color="#c9973a"/><stop offset="1" stop-color="#6e4912"/>
 </linearGradient>
 <linearGradient id="nib" x1="0" y1="0" x2="1" y2="0">
  <stop offset="0" stop-color="#6b4712"/><stop offset=".45" stop-color="#e6c067"/><stop offset=".6" stop-color="#f9e3a0"/><stop offset="1" stop-color="#7c5518"/>
 </linearGradient>
 <filter id="sh" x="-20%" y="-10%" width="140%" height="130%"><feDropShadow dx="2" dy="3" stdDeviation="2.2" flood-color="#2a1a0a" flood-opacity=".35"/></filter>
</defs>
<g transform="rotate(16 80 190) translate(20 8)" filter="url(#sh)">
 <path d="M60.0,236.0 L59.7,230.4 L51.8,224.9 L48.7,219.3 L50.5,213.8 L49.6,209.2 L41.3,202.7 L43.8,197.2 L37.5,191.6 L35.9,186.1 L39.0,180.5 L39.4,175.9 L32.4,169.4 L36.1,163.8 L31.1,158.3 L30.8,152.8 L35.1,147.2 L36.7,142.7 L31.0,136.1 L31.5,130.6 L32.2,125.0 L33.2,119.4 L34.3,113.9 L35.5,108.4 L37.0,102.8 L38.7,97.2 L40.5,91.7 L42.5,86.1 L44.7,80.6 L47.0,75.1 L49.5,69.5 L52.1,63.9 L55.0,58.4 L58.1,52.9 L61.5,47.3 L65.2,41.8 L65.4,36.2 L65.5,30.6 L65.7,25.1 L65.8,19.6 L66.0,14.0 L66.0,14.0 L65.9,19.6 L65.7,25.1 L65.6,30.6 L65.4,36.2 L65.3,41.8 L62.2,49.3 L71.0,52.9 L73.5,58.4 L75.7,63.9 L71.8,71.5 L79.7,75.1 L81.4,80.6 L83.1,86.1 L84.5,91.7 L79.9,99.2 L87.1,102.8 L88.1,108.4 L88.9,113.9 L89.6,119.4 L90.1,125.0 L90.5,130.6 L90.6,136.1 L90.6,141.7 L90.4,147.2 L90.0,152.8 L89.5,158.3 L88.7,163.8 L87.8,169.4 L86.6,174.9 L81.8,180.5 L83.8,186.1 L82.1,191.6 L80.2,197.2 L74.7,202.7 L75.9,208.2 L73.5,213.8 L70.8,219.3 L64.3,224.9 L64.5,230.4 L60.0,236.0 Z" fill="url(#fe)" stroke="#8f8290" stroke-width=".8" stroke-linejoin="round"/>
 <g fill="none" stroke="#a79aa6" stroke-width=".55" opacity=".75"><path d="M60.6,213.8 Q54.7,207.8 48.7,200.4" /><path d="M60.6,213.8 Q65.6,207.8 70.6,200.4" /><path d="M60.8,208.2 Q53.2,202.2 45.6,194.8" /><path d="M60.8,208.2 Q66.5,202.2 72.3,194.8" /><path d="M60.9,202.7 Q52.5,196.7 44.1,189.1" /><path d="M60.9,202.7 Q68.0,196.7 75.1,189.1" /><path d="M61.0,197.2 Q52.8,191.2 44.5,183.5" /><path d="M61.0,197.2 Q69.2,191.2 77.4,183.5" /><path d="M61.2,191.6 Q52.2,185.6 43.3,177.8" /><path d="M61.2,191.6 Q69.9,185.6 78.7,177.8" /><path d="M61.4,186.1 Q51.6,180.1 41.9,172.2" /><path d="M61.4,186.1 Q70.0,180.1 78.6,172.2" /><path d="M61.5,180.5 Q50.2,174.5 39.0,166.5" /><path d="M61.5,180.5 Q72.4,174.5 83.3,166.5" /><path d="M61.6,174.9 Q50.7,168.9 39.7,160.8" /><path d="M61.6,174.9 Q71.6,168.9 81.5,160.8" /><path d="M61.8,169.4 Q48.9,163.4 36.0,155.2" /><path d="M61.8,169.4 Q74.0,163.4 86.2,155.2" /><path d="M62.0,163.8 Q48.8,157.8 35.7,149.5" /><path d="M62.0,163.8 Q73.0,157.8 84.1,149.5" /><path d="M62.1,158.3 Q47.4,152.3 32.8,143.9" /><path d="M62.1,158.3 Q72.5,152.3 82.9,143.9" /><path d="M62.2,152.8 Q47.7,146.8 33.2,138.2" /><path d="M62.2,152.8 Q73.5,146.8 84.7,138.2" /><path d="M62.4,147.2 Q50.0,141.2 37.7,132.6" /><path d="M62.4,147.2 Q73.2,141.2 84.1,132.6" /><path d="M62.5,141.7 Q49.6,135.7 36.7,127.0" /><path d="M62.5,141.7 Q75.4,135.7 88.2,127.0" /><path d="M62.7,136.1 Q50.3,130.1 37.8,121.3" /><path d="M62.7,136.1 Q74.8,130.1 86.9,121.3" /><path d="M62.9,130.6 Q49.1,124.6 35.4,115.7" /><path d="M62.9,130.6 Q74.2,124.6 85.6,115.7" /><path d="M63.0,125.0 Q49.8,119.0 36.6,110.0" /><path d="M63.0,125.0 Q73.3,119.0 83.7,110.0" /><path d="M63.1,119.4 Q51.7,113.4 40.3,104.3" /><path d="M63.1,119.4 Q73.6,113.4 84.1,104.3" /><path d="M63.3,113.9 Q50.4,107.9 37.6,98.7" /><path d="M63.3,113.9 Q74.0,107.9 84.7,98.7" /><path d="M63.5,108.4 Q52.1,102.4 40.8,93.1" /><path d="M63.5,108.4 Q74.1,102.4 84.8,93.1" /><path d="M63.6,102.8 Q52.4,96.8 41.3,87.4" /><path d="M63.6,102.8 Q73.1,96.8 82.6,87.4" /><path d="M63.8,97.2 Q52.4,91.2 41.0,81.8" /><path d="M63.8,97.2 Q73.6,91.2 83.4,81.8" /><path d="M63.9,91.7 Q54.6,85.7 45.2,76.1" /><path d="M63.9,91.7 Q72.8,85.7 81.8,76.1" /><path d="M64.0,86.1 Q54.8,80.1 45.6,70.4" /><path d="M64.0,86.1 Q72.8,80.1 81.6,70.4" /><path d="M64.2,80.6 Q55.4,74.6 46.7,64.8" /><path d="M64.2,80.6 Q71.2,74.6 78.1,64.8" /><path d="M64.3,75.1 Q56.1,69.1 47.9,59.2" /><path d="M64.3,75.1 Q70.3,69.1 76.2,59.2" /><path d="M64.5,69.5 Q58.2,63.5 52.0,53.5" /><path d="M64.5,69.5 Q70.5,63.5 76.5,53.5" /><path d="M64.7,63.9 Q59.8,57.9 54.9,47.8" /><path d="M64.7,63.9 Q69.3,57.9 74.0,47.8" /><path d="M64.8,58.4 Q61.1,52.4 57.4,42.2" /><path d="M64.8,58.4 Q68.6,52.4 72.5,42.2" /><path d="M65.0,52.9 Q61.8,46.9 58.7,36.6" /><path d="M65.0,52.9 Q67.6,46.9 70.2,36.6" /><path d="M65.1,47.3 Q63.5,41.3 61.8,30.9" /><path d="M65.1,47.3 Q66.4,41.3 67.7,30.9" /><path d="M65.2,41.8 Q65.2,35.8 65.2,25.2" /><path d="M65.2,41.8 Q65.3,35.8 65.3,25.2" /><path d="M65.4,36.2 Q65.4,30.2 65.4,19.6" /><path d="M65.4,36.2 Q65.4,30.2 65.4,19.6" /><path d="M65.5,30.6 Q65.5,24.6 65.5,13.9" /><path d="M65.5,30.6 Q65.6,24.6 65.6,13.9" /></g>
 <path d="M60,244 Q63,130 66,14" fill="none" stroke="url(#au)" stroke-width="2.6" stroke-linecap="round"/>
 <!-- 장식 칼라 (백합 문양) -->
 <g stroke="#5b3c0e" stroke-width=".7" fill="url(#au)">
  <path d="M60,238 C56,246 55,252 58,258 L62,258 C65,252 64,246 60,238 Z"/>
  <path d="M58,255 C48,250 40,256 42,265 C44,272 53,271 52,264 C51,260 47,261 48,264" fill="none" stroke="url(#au)" stroke-width="3"/>
  <path d="M62,255 C72,250 80,256 78,265 C76,272 67,271 68,264 C69,260 73,261 72,264" fill="none" stroke="url(#au)" stroke-width="3"/>
  <rect x="51" y="264" width="18" height="6" rx="2.5"/>
  <rect x="53" y="270" width="14" height="5" rx="2"/>
  <rect x="50.5" y="275" width="19" height="7" rx="3"/>
  <path d="M52,282 L68,282 L66.5,302 L53.5,302 Z"/>
  <rect x="52.5" y="301" width="15" height="4" rx="1.5"/>
 </g>
 <!-- 펜촉 -->
 <path d="M53.5,305 L66.5,305 L61,352 L59,352 Z" fill="url(#nib)" stroke="#5b3c0e" stroke-width=".7"/>
 <path d="M60,318 L60,350" stroke="#4a300a" stroke-width=".7"/>
 <circle cx="60" cy="317" r="1.3" fill="#4a300a"/>
 <path d="M57,286 L57,300" stroke="#fff5cf" stroke-width="1.1" opacity=".7"/>
</g>
</svg>