<svg xmlns="http://www.w3.org/2000/svg" viewBox="0 0 300 330" width="300" height="330" xmlns:c2pa="http://c2pa.org/manifest"><metadata><c2pa:manifest>AAAWgmp1bWIAAAAeanVtZGMycGEAEQAQgAAAqgA4m3EDYzJwYQAAABZcanVtYgAAAEdqdW1kYzJtYQARABCAAACqADibcQN1cm46YzJwYToxYTE2ZGM3Zi1jZDVhLTQ4NzItYjc0Ny03N2VmNTUxYTQyZjgAAAADl2p1bWIAAAApanVtZGMyYXMAEQAQgAAAqgA4m3EDYzJwYS5hc3NlcnRpb25zAAAAALxqdW1iAAAARGp1bWRjYm9yABEAEIAAAKoAOJtxE2MycGEuaW5ncmVkaWVudC52MwAAAAAYYzJzaKznv1uhKOaX9TZEHyESRggAAABwY2JvcqNpZGM6Zm9ybWF0bWltYWdlL3N2Zyt4bWxqaW5zdGFuY2VJRHgseG1wOmlpZDo2Y2NhODFkMC1hYTNmLTQ4ZmUtYTFmMS0yNjY2ZDBkMTAzMzVscmVsYXRpb25zaGlwaHBhcmVudE9mAAAB4mp1bWIAAABBanVtZGNib3IAEQAQgAAAqgA4m3ETYzJwYS5hY3Rpb25zLnYyAAAAABhjMnNo8RmUNNaIHHWcAufXXyIiNwAAAZljYm9yomdhY3Rpb25zgqJmYWN0aW9ua2MycGEub3BlbmVkanBhcmFtZXRlcnOha2luZ3JlZGllbnRzgaJjdXJseC1zZWxmI2p1bWJmPWMycGEuYXNzZXJ0aW9ucy9jMnBhLmluZ3JlZGllbnQudjNkaGFzaFggT7EzVLR0Tw+n1rF0UJ00xT43BGZ+GxyXjBantPDwTt2kZmFjdGlvbngdY29tLmFudGhyb3BpYy5jbGF1ZGUucHJvdmlkZWRqcGFyYW1ldGVyc6F4H2NvbS5hbnRocm9waWMub3JpZ2luLWNvbmZpZGVuY2VndW5rbm93bmtkZXNjcmlwdGlvbnhmQ2xhdWRlIHByb3ZpZGVkIHRoaXMgZmlsZSBhdCB0aGUgcmVxdWVzdCBvZiBhIHVzZXIgYW5kIG1heSBoYXZlIGNyZWF0ZWQgb3IgbW9kaWZpZWQgdGhlIGZpbGUgY29udGVudHMubXNvZnR3YXJlQWdlbnShZG5hbWVmQ2xhdWRlcmFsbEFjdGlvbnNJbmNsdWRlZPUAAADIanVtYgAAAEBqdW1kY2JvcgARABCAAACqADibcRNjMnBhLmhhc2guZGF0YQAAAAAYYzJzaP0JlKoMS/HxgSm0scuo3kYAAACAY2JvcqVjYWxnZnNoYTI1NmNwYWRNAAAAAAAAAAAAAAAAAGRoYXNoWCAnjyxuaCoXeBSItZ93w3hpkUqxooum0Juty4Cop4c9OWRuYW1lbmp1bWJmIG1hbmlmZXN0amV4Y2x1c2lvbnOBomVzdGFydBiWZmxlbmd0aBkeBAAAAj5qdW1iAAAAJ2p1bWRjMmNsABEAEIAAAKoAOJtxA2MycGEuY2xhaW0udjIAAAACD2Nib3KlY2FsZ2ZzaGEyNTZpc2lnbmF0dXJleE1zZWxmI2p1bWJmPS9jMnBhL3VybjpjMnBhOjFhMTZkYzdmLWNkNWEtNDg3Mi1iNzQ3LTc3ZWY1NTFhNDJmOC9jMnBhLnNpZ25hdHVyZWppbnN0YW5jZUlEeCx4bXA6aWlkOjlhOWEyNzcxLWEwNjAtNGE1OC04YThlLTFiMmVlODg0OGZhN3JjcmVhdGVkX2Fzc2VydGlvbnODomN1cmx4LXNlbGYjanVtYmY9YzJwYS5hc3NlcnRpb25zL2MycGEuaW5ncmVkaWVudC52M2RoYXNoWCBPsTNUtHRPD6fWsXRQnTTFPjcEZn4bHJeMFqe08PBO3aJjdXJseCpzZWxmI2p1bWJmPWMycGEuYXNzZXJ0aW9ucy9jMnBhLmFjdGlvbnMudjJkaGFzaFggGB+ijjbmLcoh+1HfKJB4Y/6YpMAZ/+h6jj7dWQscizqiY3VybHgpc2VsZiNqdW1iZj1jMnBhLmFzc2VydGlvbnMvYzJwYS5oYXNoLmRhdGFkaGFzaFggYuyyv5y+2dEXvLO6v9xF3b8UnEqMUgxercKnZWnT0Ih0Y2xhaW1fZ2VuZXJhdG9yX2luZm+jZG5hbWVvQW50aHJvcGljIEZpbGVzZ3ZlcnNpb25lMS4wLjBrc3BlY1ZlcnNpb25lMi40LjAAABA4anVtYgAAAChqdW1kYzJjcwARABCAAACqADibcQNjMnBhLnNpZ25hdHVyZQAAABAIY2JvctKEWQISogEmGCFZAgowggIGMIIBjaADAgECAhRA5aAK7sI50L64g/oGQgU9Z1UTADAKBggqhkjOPQQDAzBJMRcwFQYDVQQKEw5BbnRocm9waWMsIFBCQzEuMCwGA1UEAxMlQW50aHJvcGljIENvbnRlbnQgQ3JlZGVudGlhbHMgUm9vdCBDQTAeFw0yNjA4MDcxODQzNTZaFw0yODA4MDYxOTQzNTZaMEQxFzAVBgNVBAoTDkFudGhyb3BpYywgUEJDMSkwJwYDVQQDEyBBbnRocm9waWMgQ2xhdWRlIENvbnRlbnQgU2lnbmluZzBZMBMGByqGSM49AgEGCCqGSM49AwEHA0IABJh6CmvLUBgFFNU0vUKlOVtE6djd17L5SuwX0LemFisBM3dkd/3cyjxFA3Qo5S46fX0/ihY0VZ7mfb9KF703t5OjWDBWMA4GA1UdDwEB/wQEAwIHgDAVBgNVHSUEDjAMBgorBgEEAYPoXgIBMAwGA1UdEwEB/wQCMAAwHwYDVR0jBBgwFoAUzlHiBIFOZFsj+OPEz5o+nMHXXMIwCgYIKoZIzj0EAwMDZwAwZAIwMXMdFJ4BetLLVY7ORuE9noqbbAZOZn/aArXyTwFAZfKrPzxF2vPoJNf1+UCdg1XGAjBwX1zd9WGqYkqmL5SFqw1QySjr1zJfpJM9+1rdDwSPLMOPOjKuiXjoU/pUUeG9RwmhY3BhZFkNngAAAAAAAAAAAAAAAAAAAAAAAAAAAAAAAAAAAAAAAAAAAAAAAAAAAAAAAAAAAAAAAAAAAAAAAAAAAAAAAAAAAAAAAAAAAAAAAAAAAAAAAAAAAAAAAAAAAAAAAAAAAAAAAAAAAAAAAAAAAAAAAAAAAAAAAAAAAAAAAAAAAAAAAAAAAAAAAAAAAAAAAAAAAAAAAAAAAAAAAAAAAAAAAAAAAAAAAAAAAAAAAAAAAAAAAAAAAAAAAAAAAAAAAAAAAAAAAAAAAAAAAAAAAAAAAAAAAAAAAAAAAAAAAAAAAAAAAAAAAAAAAAAAAAAAAAAAAAAAAAAAAAAAAAAAAAAAAAAAAAAAAAAAAAAAAAAAAAAAAAAAAAAAAAAAAAAAAAAAAAAAAAAAAAAAAAAAAAAAAAAAAAAAAAAAAAAAAAAAAAAAAAAAAAAAAAAAAAAAAAAAAAAAAAAAAAAAAAAAAAAAAAAAAAAAAAAAAAAAAAAAAAAAAAAAAAAAAAAAAAAAAAAAAAAAAAAAAAAAAAAAAAAAAAAAAAAAAAAAAAAAAAAAAAAAAAAAAAAAAAAAAAAAAAAAAAAAAAAAAAAAAAAAAAAAAAAAAAAAAAAAAAAAAAAAAAAAAAAAAAAAAAAAAAAAAAAAAAAAAAAAAAAAAAAAAAAAAAAAAAAAAAAAAAAAAAAAAAAAAAAAAAAAAAAAAAAAAAAAAAAAAAAAAAAAAAAAAAAAAAAAAAAAAAAAAAAAAAAAAAAAAAAAAAAAAAAAAAAAAAAAAAAAAAAAAAAAAAAAAAAAAAAAAAAAAAAAAAAAAAAAAAAAAAAAAAAAAAAAAAAAAAAAAAAAAAAAAAAAAAAAAAAAAAAAAAAAAAAAAAAAAAAAAAAAAAAAAAAAAAAAAAAAAAAAAAAAAAAAAAAAAAAAAAAAAAAAAAAAAAAAAAAAAAAAAAAAAAAAAAAAAAAAAAAAAAAAAAAAAAAAAAAAAAAAAAAAAAAAAAAAAAAAAAAAAAAAAAAAAAAAAAAAAAAAAAAAAAAAAAAAAAAAAAAAAAAAAAAAAAAAAAAAAAAAAAAAAAAAAAAAAAAAAAAAAAAAAAAAAAAAAAAAAAAAAAAAAAAAAAAAAAAAAAAAAAAAAAAAAAAAAAAAAAAAAAAAAAAAAAAAAAAAAAAAAAAAAAAAAAAAAAAAAAAAAAAAAAAAAAAAAAAAAAAAAAAAAAAAAAAAAAAAAAAAAAAAAAAAAAAAAAAAAAAAAAAAAAAAAAAAAAAAAAAAAAAAAAAAAAAAAAAAAAAAAAAAAAAAAAAAAAAAAAAAAAAAAAAAAAAAAAAAAAAAAAAAAAAAAAAAAAAAAAAAAAAAAAAAAAAAAAAAAAAAAAAAAAAAAAAAAAAAAAAAAAAAAAAAAAAAAAAAAAAAAAAAAAAAAAAAAAAAAAAAAAAAAAAAAAAAAAAAAAAAAAAAAAAAAAAAAAAAAAAAAAAAAAAAAAAAAAAAAAAAAAAAAAAAAAAAAAAAAAAAAAAAAAAAAAAAAAAAAAAAAAAAAAAAAAAAAAAAAAAAAAAAAAAAAAAAAAAAAAAAAAAAAAAAAAAAAAAAAAAAAAAAAAAAAAAAAAAAAAAAAAAAAAAAAAAAAAAAAAAAAAAAAAAAAAAAAAAAAAAAAAAAAAAAAAAAAAAAAAAAAAAAAAAAAAAAAAAAAAAAAAAAAAAAAAAAAAAAAAAAAAAAAAAAAAAAAAAAAAAAAAAAAAAAAAAAAAAAAAAAAAAAAAAAAAAAAAAAAAAAAAAAAAAAAAAAAAAAAAAAAAAAAAAAAAAAAAAAAAAAAAAAAAAAAAAAAAAAAAAAAAAAAAAAAAAAAAAAAAAAAAAAAAAAAAAAAAAAAAAAAAAAAAAAAAAAAAAAAAAAAAAAAAAAAAAAAAAAAAAAAAAAAAAAAAAAAAAAAAAAAAAAAAAAAAAAAAAAAAAAAAAAAAAAAAAAAAAAAAAAAAAAAAAAAAAAAAAAAAAAAAAAAAAAAAAAAAAAAAAAAAAAAAAAAAAAAAAAAAAAAAAAAAAAAAAAAAAAAAAAAAAAAAAAAAAAAAAAAAAAAAAAAAAAAAAAAAAAAAAAAAAAAAAAAAAAAAAAAAAAAAAAAAAAAAAAAAAAAAAAAAAAAAAAAAAAAAAAAAAAAAAAAAAAAAAAAAAAAAAAAAAAAAAAAAAAAAAAAAAAAAAAAAAAAAAAAAAAAAAAAAAAAAAAAAAAAAAAAAAAAAAAAAAAAAAAAAAAAAAAAAAAAAAAAAAAAAAAAAAAAAAAAAAAAAAAAAAAAAAAAAAAAAAAAAAAAAAAAAAAAAAAAAAAAAAAAAAAAAAAAAAAAAAAAAAAAAAAAAAAAAAAAAAAAAAAAAAAAAAAAAAAAAAAAAAAAAAAAAAAAAAAAAAAAAAAAAAAAAAAAAAAAAAAAAAAAAAAAAAAAAAAAAAAAAAAAAAAAAAAAAAAAAAAAAAAAAAAAAAAAAAAAAAAAAAAAAAAAAAAAAAAAAAAAAAAAAAAAAAAAAAAAAAAAAAAAAAAAAAAAAAAAAAAAAAAAAAAAAAAAAAAAAAAAAAAAAAAAAAAAAAAAAAAAAAAAAAAAAAAAAAAAAAAAAAAAAAAAAAAAAAAAAAAAAAAAAAAAAAAAAAAAAAAAAAAAAAAAAAAAAAAAAAAAAAAAAAAAAAAAAAAAAAAAAAAAAAAAAAAAAAAAAAAAAAAAAAAAAAAAAAAAAAAAAAAAAAAAAAAAAAAAAAAAAAAAAAAAAAAAAAAAAAAAAAAAAAAAAAAAAAAAAAAAAAAAAAAAAAAAAAAAAAAAAAAAAAAAAAAAAAAAAAAAAAAAAAAAAAAAAAAAAAAAAAAAAAAAAAAAAAAAAAAAAAAAAAAAAAAAAAAAAAAAAAAAAAAAAAAAAAAAAAAAAAAAAAAAAAAAAAAAAAAAAAAAAAAAAAAAAAAAAAAAAAAAAAAAAAAAAAAAAAAAAAAAAAAAAAAAAAAAAAAAAAAAAAAAAAAAAAAAAAAAAAAAAAAAAAAAAAAAAAAAAAAAAAAAAAAAAAAAAAAAAAAAAAAAAAAAAAAAAAAAAAAAAAAAAAAAAAAAAAAAAAAAAAAAAAAAAAAAAAAAAAAAAAAAAAAAAAAAAAAAAAAAAAAAAAAAAAAAAAAAAAAAAAAAAAAAAAAAAAAAAAAAAAAAAAAAAAAAAAAAAAAAAAAAAAAAAAAAAAAAAAAAAAAAAAAAAAAAAAAAAAAAAAAAAAAAAAAAAAAAAAAAAAAAAAAAAAAAAAAAAAAAAAAAAAAAAAAAAAAAAAAAAAAAAAAAAAAAAAAAAAAAAAAAAAAAAAAAAAAAAAAAAAAAAAAAAAAAAAAAAAAAAAAAAAAAAAAAAAAAAAAAAAAAAAAAAAAAAAAAAAAAAAAAAAAAAAAAAAAAAAAAAAAAAAAAAAAAAAAAAAAAAAAAAAAAAAAAAAAAAAAAAAAAAAAAAAAAAAAAAAAAAAAAAAAAAAAAAAAAAAAAAAAAAAAAAAAAAAAAAAAAAAAAAAAAAAAAAAAAAAAAAAAAAAAAAAAAAAAAAAAAAAAAAAAAAAAAAAAAAAAAAAAAAAAAAAAAAAAAAAAAAAAAAAAAAAAAAAAAAAAAAAAAAAAAAAAAAAAAAAAAAAAAAAAAAAAAAAAAAAAAAAAAAAAAAAAAAAAAAAAAAAAAAAAAAAAAAAAAAAAAAAAAAAAAAAAAAAAAAAAAAAAAAAAAAAAAAAAAAAAAAAAAAAAAAAAAAAAAAAAAAAAAAAAAAAAAAAAAAAAAAAAAAAAAAAAAAAAAAAAAAAAAAAAAAAAAAAAAAAAAAAAAAAAAAAAAAAAAAAAAAAAAAAAAAAAAAAAAAAAAAAAAAAAAAAAAAAAAAAAAAAAAAAAAAAAAAAAAAAAAAAAAAAAAAAAAAAAAAAAAAAAAAAAAAAAAAAAAAAAAAAAAAAAAAAAAAAAAAAAAAAAAAAAAAAAAAAAAAAAAAAAAAAAAAAAAAAAAAAAAAAAAAAAAAAAAAAAAAAAAAAAAAAAAAAAAAAAAAAAAAAAAAAAAAAAAAAAAAAAAAAAAAAAAAAAAAAAAAAAAAAAAAAAAAAAAAAAAAAAAAAAAAAAAAAAAAAAAAAAAAAAAAAAAAAAAAAAAAAAAAAAAAAAAAAAAAAAAAAAAAAAAAAAAAAAAAAAAAAAAAAAAAAAAAAAAAAAAAAAAAAAAAAAAAAAAAAAAAAAAAAAAAAAAAAAAAAAAAAAAAAAAAAAAAAAAAAAAAAAAAAAAAAAAAAAAAAAAAAAAAAAAAAAAAAAAAAAAAAAAAAAAAAAAAAAAAAAAAAAAAAAAAAAAAAAAAAAAAAAAAAAAAAAAAAAAAAAAAAAAAAAAAAAAAAAAAAAAAAAAAAAAAAAAAAAAAAAAAAAAAAAAAAAAAAAAAAAAAAAAAAAAAAAAAAAAAAAAAAAAAAAAAAAAAAAAAAAAAAAAAAAAAAAAAAAAAAAAAAAAAAAAAAAAAAAAAAAAAAAAAAAAAAAAAAAAAAAAAAAAAAAAAAAAAAAAAAAAAAAAAAAAAAAAAAAAAAAAAAAAAAAAAAAAAAAAAAAAAAAAAAAAAAAAAAAAAAAAAAAAAAAAAAAAAAAAAAAAAAAAAAAAAAAAAAAAAAAAAAAAAAAAAAAAAAAAAAAAAAAAAAAAAAAAAAAAAAAAAAAAAAAAPZYQI7r0aLAHr9um4OL/08y1MVhksJmCCz48t6amAuvqFH4Fqps0uiiGomAOfBocBJ2euJcyL3qfb5ZjHuaRKFq2yo=</c2pa:manifest></metadata>
<defs>
 <radialGradient id="case" cx="38%" cy="32%" r="75%"><stop offset="0" stop-color="#fff2be"/><stop offset=".25" stop-color="#e7c56c"/><stop offset=".6" stop-color="#b8862f"/><stop offset=".85" stop-color="#7a5317"/><stop offset="1" stop-color="#4f3409"/></radialGradient>
 <linearGradient id="bez" x1="0" y1="0" x2="1" y2="1"><stop offset="0" stop-color="#6d4a14"/><stop offset=".5" stop-color="#f1d58a"/><stop offset="1" stop-color="#6a4512"/></linearGradient>
 <radialGradient id="dial" cx="45%" cy="40%" r="70%"><stop offset="0" stop-color="#6c6a66"/><stop offset=".7" stop-color="#3f3d3a"/><stop offset="1" stop-color="#262421"/></radialGradient>
 <linearGradient id="au" x1="0" y1="0" x2="1" y2="0"><stop offset="0" stop-color="#7a5418"/><stop offset=".4" stop-color="#ecc96e"/><stop offset=".6" stop-color="#fff0b8"/><stop offset="1" stop-color="#6e4912"/></linearGradient>
 <linearGradient id="glass" x1="0" y1="0" x2="1" y2="1"><stop offset="0" stop-color="#fff" stop-opacity=".45"/><stop offset=".35" stop-color="#fff" stop-opacity=".06"/><stop offset="1" stop-color="#fff" stop-opacity="0"/></linearGradient>
 <filter id="sh" x="-20%" y="-20%" width="140%" height="140%"><feDropShadow dx="3" dy="5" stdDeviation="4" flood-color="#241406" flood-opacity=".45"/></filter>
</defs>
<g transform="rotate(-18 150 180)" filter="url(#sh)">
 <!-- 용두·고리 -->
 <g stroke="#4f3409" stroke-width="1.2">
  <path d="M136,36 C128,14 172,14 164,36" fill="none" stroke="url(#au)" stroke-width="9" stroke-linecap="round"/>
  <path d="M136,36 C128,14 172,14 164,36" fill="none" stroke="#4f3409" stroke-width="1" opacity=".5"/>
  <rect x="140" y="38" width="20" height="12" rx="4" fill="url(#au)"/>
  <rect x="136" y="50" width="28" height="16" rx="6" fill="url(#au)"/>
  <g stroke="#6e4912" stroke-width=".8" opacity=".7"><line x1="141" y1="52" x2="141" y2="64"/><line x1="147" y1="52" x2="147" y2="64"/><line x1="153" y1="52" x2="153" y2="64"/><line x1="159" y1="52" x2="159" y2="64"/></g>
  <rect x="142" y="66" width="16" height="14" rx="3" fill="url(#au)"/>
 </g>
 <!-- 케이스 -->
 <circle cx="150" cy="190" r="118" fill="url(#case)" stroke="#4a3008" stroke-width="1.5"/>
 <circle cx="150" cy="190" r="108" fill="none" stroke="url(#bez)" stroke-width="10"/>
 <circle cx="150" cy="190" r="103" fill="url(#dial)" stroke="#2c2008" stroke-width="1.2"/>
 <circle cx="150" cy="190" r="86" fill="none" stroke="#c9a458" stroke-width=".7" opacity=".6"/>
 <g stroke="#d9b867"><line x1="150.0" y1="98.0" x2="150.0" y2="107.0" stroke-width="1.6"/><line x1="159.6" y1="98.5" x2="159.2" y2="102.5" stroke-width="0.8"/><line x1="169.1" y1="100.0" x2="168.3" y2="103.9" stroke-width="0.8"/><line x1="178.4" y1="102.5" x2="177.2" y2="106.3" stroke-width="0.8"/><line x1="187.4" y1="106.0" x2="185.8" y2="109.6" stroke-width="0.8"/><line x1="196.0" y1="110.3" x2="191.5" y2="118.1" stroke-width="1.6"/><line x1="204.1" y1="115.6" x2="201.7" y2="118.8" stroke-width="0.8"/><line x1="211.6" y1="121.6" x2="208.9" y2="124.6" stroke-width="0.8"/><line x1="218.4" y1="128.4" x2="215.4" y2="131.1" stroke-width="0.8"/><line x1="224.4" y1="135.9" x2="221.2" y2="138.3" stroke-width="0.8"/><line x1="229.7" y1="144.0" x2="221.9" y2="148.5" stroke-width="1.6"/><line x1="234.0" y1="152.6" x2="230.4" y2="154.2" stroke-width="0.8"/><line x1="237.5" y1="161.6" x2="233.7" y2="162.8" stroke-width="0.8"/><line x1="240.0" y1="170.9" x2="236.1" y2="171.7" stroke-width="0.8"/><line x1="241.5" y1="180.4" x2="237.5" y2="180.8" stroke-width="0.8"/><line x1="242.0" y1="190.0" x2="233.0" y2="190.0" stroke-width="1.6"/><line x1="241.5" y1="199.6" x2="237.5" y2="199.2" stroke-width="0.8"/><line x1="240.0" y1="209.1" x2="236.1" y2="208.3" stroke-width="0.8"/><line x1="237.5" y1="218.4" x2="233.7" y2="217.2" stroke-width="0.8"/><line x1="234.0" y1="227.4" x2="230.4" y2="225.8" stroke-width="0.8"/><line x1="229.7" y1="236.0" x2="221.9" y2="231.5" stroke-width="1.6"/><line x1="224.4" y1="244.1" x2="221.2" y2="241.7" stroke-width="0.8"/><line x1="218.4" y1="251.6" x2="215.4" y2="248.9" stroke-width="0.8"/><line x1="211.6" y1="258.4" x2="208.9" y2="255.4" stroke-width="0.8"/><line x1="204.1" y1="264.4" x2="201.7" y2="261.2" stroke-width="0.8"/><line x1="196.0" y1="269.7" x2="191.5" y2="261.9" stroke-width="1.6"/><line x1="187.4" y1="274.0" x2="185.8" y2="270.4" stroke-width="0.8"/><line x1="178.4" y1="277.5" x2="177.2" y2="273.7" stroke-width="0.8"/><line x1="169.1" y1="280.0" x2="168.3" y2="276.1" stroke-width="0.8"/><line x1="159.6" y1="281.5" x2="159.2" y2="277.5" stroke-width="0.8"/><line x1="150.0" y1="282.0" x2="150.0" y2="273.0" stroke-width="1.6"/><line x1="140.4" y1="281.5" x2="140.8" y2="277.5" stroke-width="0.8"/><line x1="130.9" y1="280.0" x2="131.7" y2="276.1" stroke-width="0.8"/><line x1="121.6" y1="277.5" x2="122.8" y2="273.7" stroke-width="0.8"/><line x1="112.6" y1="274.0" x2="114.2" y2="270.4" stroke-width="0.8"/><line x1="104.0" y1="269.7" x2="108.5" y2="261.9" stroke-width="1.6"/><line x1="95.9" y1="264.4" x2="98.3" y2="261.2" stroke-width="0.8"/><line x1="88.4" y1="258.4" x2="91.1" y2="255.4" stroke-width="0.8"/><line x1="81.6" y1="251.6" x2="84.6" y2="248.9" stroke-width="0.8"/><line x1="75.6" y1="244.1" x2="78.8" y2="241.7" stroke-width="0.8"/><line x1="70.3" y1="236.0" x2="78.1" y2="231.5" stroke-width="1.6"/><line x1="66.0" y1="227.4" x2="69.6" y2="225.8" stroke-width="0.8"/><line x1="62.5" y1="218.4" x2="66.3" y2="217.2" stroke-width="0.8"/><line x1="60.0" y1="209.1" x2="63.9" y2="208.3" stroke-width="0.8"/><line x1="58.5" y1="199.6" x2="62.5" y2="199.2" stroke-width="0.8"/><line x1="58.0" y1="190.0" x2="67.0" y2="190.0" stroke-width="1.6"/><line x1="58.5" y1="180.4" x2="62.5" y2="180.8" stroke-width="0.8"/><line x1="60.0" y1="170.9" x2="63.9" y2="171.7" stroke-width="0.8"/><line x1="62.5" y1="161.6" x2="66.3" y2="162.8" stroke-width="0.8"/><line x1="66.0" y1="152.6" x2="69.6" y2="154.2" stroke-width="0.8"/><line x1="70.3" y1="144.0" x2="78.1" y2="148.5" stroke-width="1.6"/><line x1="75.6" y1="135.9" x2="78.8" y2="138.3" stroke-width="0.8"/><line x1="81.6" y1="128.4" x2="84.6" y2="131.1" stroke-width="0.8"/><line x1="88.4" y1="121.6" x2="91.1" y2="124.6" stroke-width="0.8"/><line x1="95.9" y1="115.6" x2="98.3" y2="118.8" stroke-width="0.8"/><line x1="104.0" y1="110.3" x2="108.5" y2="118.1" stroke-width="1.6"/><line x1="112.6" y1="106.0" x2="114.2" y2="109.6" stroke-width="0.8"/><line x1="121.6" y1="102.5" x2="122.8" y2="106.3" stroke-width="0.8"/><line x1="130.9" y1="100.0" x2="131.7" y2="103.9" stroke-width="0.8"/><line x1="140.4" y1="98.5" x2="140.8" y2="102.5" stroke-width="0.8"/></g>
 <g fill="#e2c173" font-family="Georgia,serif" font-size="14" font-weight="700" dominant-baseline="middle" text-anchor="middle"><text x="150.0" y="118.0">XII</text><text x="186.0" y="127.6">I</text><text x="212.4" y="154.0">II</text><text x="222.0" y="190.0">III</text><text x="212.4" y="226.0">IV</text><text x="186.0" y="252.4">V</text><text x="150.0" y="262.0">VI</text><text x="114.0" y="252.4">VII</text><text x="87.6" y="226.0">VIII</text><text x="78.0" y="190.0">IX</text><text x="87.6" y="154.0">X</text><text x="114.0" y="127.6">XI</text></g>
 <!-- 작은 초침판 -->
 <circle cx="150" cy="232" r="16" fill="none" stroke="#c9a458" stroke-width=".8" opacity=".7"/>
 <line x1="150" y1="232" x2="157" y2="222" stroke="#e8c874" stroke-width="1.4"/>
 <!-- 바늘 -->
 <g fill="url(#au)" stroke="#4f3409" stroke-width=".7"><path d="M161.6,194.4 L152.9,185.9 L102.5,156.7 L147.1,194.1 L158.1,199.3 Z"/><path d="M140.4,197.5 L151.7,193.2 L222.4,151.5 L148.3,186.8 L138.4,193.7 Z"/></g>
 <circle cx="150" cy="190" r="6" fill="url(#au)" stroke="#4f3409" stroke-width=".8"/>
 <!-- 유리 반사 -->
 <path d="M72,150 A98,98 0 0 1 170,98 L158,120 A78,78 0 0 0 92,160 Z" fill="url(#glass)"/>
 <circle cx="150" cy="190" r="103" fill="none" stroke="#fff" stroke-opacity=".12" stroke-width="3"/>
</g>
</svg>