<svg xmlns="http://www.w3.org/2000/svg" width="1000" height="800" viewBox="0 0 1000 800"><defs><filter id="glow" x="-100%" y="-20%" width="300%" height="140%"><feGaussianBlur stdDeviation="4"/></filter></defs><path d="M 139.38 0 L 8 800" stroke="#35ef83" stroke-width="4.8" opacity="0.165" filter="url(#glow)"/><path d="M 139.38 0 L 8 800" stroke="#9affbf" stroke-width="2.16" opacity="0.35750000000000004"/><path d="M 139.38 0 L 8 800" stroke="#edfff2" stroke-width="1.2" opacity="0.55"/><path d="M 155.81 0 L 55 800" stroke="#35ef83" stroke-width="9.2" opacity="0.24" filter="url(#glow)"/><path d="M 155.81 0 L 55 800" stroke="#9affbf" stroke-width="4.14" opacity="0.52"/><path d="M 155.81 0 L 55 800" stroke="#edfff2" stroke-width="2.3" opacity="0.8"/><path d="M 172.24 0 L 102 800" stroke="#35ef83" stroke-width="3.2" opacity="0.12" filter="url(#glow)"/><path d="M 172.24 0 L 102 800" stroke="#9affbf" stroke-width="1.4400000000000002" opacity="0.26"/><path d="M 172.24 0 L 102 800" stroke="#edfff2" stroke-width="0.8" opacity="0.4"/><path d="M 181.33 0 L 128 800" stroke="#35ef83" stroke-width="12.4" opacity="0.27" filter="url(#glow)"/><path d="M 181.33 0 L 128 800" stroke="#9affbf" stroke-width="5.58" opacity="0.5850000000000001"/><path d="M 181.33 0 L 128 800" stroke="#edfff2" stroke-width="3.1" opacity="0.9"/><path d="M 197.76 0 L 175 800" stroke="#35ef83" stroke-width="6.0" opacity="0.165" filter="url(#glow)"/><path d="M 197.76 0 L 175 800" stroke="#9affbf" stroke-width="2.7" opacity="0.35750000000000004"/><path d="M 197.76 0 L 175 800" stroke="#edfff2" stroke-width="1.5" opacity="0.55"/><path d="M 214.20 0 L 222 800" stroke="#35ef83" stroke-width="4.8" opacity="0.24" filter="url(#glow)"/><path d="M 214.20 0 L 222 800" stroke="#9affbf" stroke-width="2.16" opacity="0.52"/><path d="M 214.20 0 L 222 800" stroke="#edfff2" stroke-width="1.2" opacity="0.8"/><path d="M 223.28 0 L 248 800" stroke="#35ef83" stroke-width="9.2" opacity="0.12" filter="url(#glow)"/><path d="M 223.28 0 L 248 800" stroke="#9affbf" stroke-width="4.14" opacity="0.26"/><path d="M 223.28 0 L 248 800" stroke="#edfff2" stroke-width="2.3" opacity="0.4"/><path d="M 239.72 0 L 295 800" stroke="#35ef83" stroke-width="3.2" opacity="0.27" filter="url(#glow)"/><path d="M 239.72 0 L 295 800" stroke="#9affbf" stroke-width="1.4400000000000002" opacity="0.5850000000000001"/><path d="M 239.72 0 L 295 800" stroke="#edfff2" stroke-width="0.8" opacity="0.9"/><path d="M 256.15 0 L 342 800" stroke="#35ef83" stroke-width="12.4" opacity="0.165" filter="url(#glow)"/><path d="M 256.15 0 L 342 800" stroke="#9affbf" stroke-width="5.58" opacity="0.35750000000000004"/><path d="M 256.15 0 L 342 800" stroke="#edfff2" stroke-width="3.1" opacity="0.55"/><path d="M 265.24 0 L 368 800" stroke="#35ef83" stroke-width="6.0" opacity="0.24" filter="url(#glow)"/><path d="M 265.24 0 L 368 800" stroke="#9affbf" stroke-width="2.7" opacity="0.52"/><path d="M 265.24 0 L 368 800" stroke="#edfff2" stroke-width="1.5" opacity="0.8"/><path d="M 281.67 0 L 415 800" stroke="#35ef83" stroke-width="4.8" opacity="0.12" filter="url(#glow)"/><path d="M 281.67 0 L 415 800" stroke="#9affbf" stroke-width="2.16" opacity="0.26"/><path d="M 281.67 0 L 415 800" stroke="#edfff2" stroke-width="1.2" opacity="0.4"/><path d="M 298.10 0 L 462 800" stroke="#35ef83" stroke-width="9.2" opacity="0.27" filter="url(#glow)"/><path d="M 298.10 0 L 462 800" stroke="#9affbf" stroke-width="4.14" opacity="0.5850000000000001"/><path d="M 298.10 0 L 462 800" stroke="#edfff2" stroke-width="2.3" opacity="0.9"/><path d="M 307.19 0 L 488 800" stroke="#35ef83" stroke-width="3.2" opacity="0.165" filter="url(#glow)"/><path d="M 307.19 0 L 488 800" stroke="#9affbf" stroke-width="1.4400000000000002" opacity="0.35750000000000004"/><path d="M 307.19 0 L 488 800" stroke="#edfff2" stroke-width="0.8" opacity="0.55"/><path d="M 323.62 0 L 535 800" stroke="#35ef83" stroke-width="12.4" opacity="0.24" filter="url(#glow)"/><path d="M 323.62 0 L 535 800" stroke="#9affbf" stroke-width="5.58" opacity="0.52"/><path d="M 323.62 0 L 535 800" stroke="#edfff2" stroke-width="3.1" opacity="0.8"/><path d="M 340.05 0 L 582 800" stroke="#35ef83" stroke-width="6.0" opacity="0.12" filter="url(#glow)"/><path d="M 340.05 0 L 582 800" stroke="#9affbf" stroke-width="2.7" opacity="0.26"/><path d="M 340.05 0 L 582 800" stroke="#edfff2" stroke-width="1.5" opacity="0.4"/><path d="M 349.14 0 L 608 800" stroke="#35ef83" stroke-width="4.8" opacity="0.27" filter="url(#glow)"/><path d="M 349.14 0 L 608 800" stroke="#9affbf" stroke-width="2.16" opacity="0.5850000000000001"/><path d="M 349.14 0 L 608 800" stroke="#edfff2" stroke-width="1.2" opacity="0.9"/><path d="M 365.57 0 L 655 800" stroke="#35ef83" stroke-width="9.2" opacity="0.165" filter="url(#glow)"/><path d="M 365.57 0 L 655 800" stroke="#9affbf" stroke-width="4.14" opacity="0.35750000000000004"/><path d="M 365.57 0 L 655 800" stroke="#edfff2" stroke-width="2.3" opacity="0.55"/><path d="M 382.00 0 L 702 800" stroke="#35ef83" stroke-width="3.2" opacity="0.24" filter="url(#glow)"/><path d="M 382.00 0 L 702 800" stroke="#9affbf" stroke-width="1.4400000000000002" opacity="0.52"/><path d="M 382.00 0 L 702 800" stroke="#edfff2" stroke-width="0.8" opacity="0.8"/><path d="M 391.09 0 L 728 800" stroke="#35ef83" stroke-width="12.4" opacity="0.12" filter="url(#glow)"/><path d="M 391.09 0 L 728 800" stroke="#9affbf" stroke-width="5.58" opacity="0.26"/><path d="M 391.09 0 L 728 800" stroke="#edfff2" stroke-width="3.1" opacity="0.4"/><path d="M 407.52 0 L 775 800" stroke="#35ef83" stroke-width="6.0" opacity="0.27" filter="url(#glow)"/><path d="M 407.52 0 L 775 800" stroke="#9affbf" stroke-width="2.7" opacity="0.5850000000000001"/><path d="M 407.52 0 L 775 800" stroke="#edfff2" stroke-width="1.5" opacity="0.9"/><path d="M 423.95 0 L 822 800" stroke="#35ef83" stroke-width="4.8" opacity="0.165" filter="url(#glow)"/><path d="M 423.95 0 L 822 800" stroke="#9affbf" stroke-width="2.16" opacity="0.35750000000000004"/><path d="M 423.95 0 L 822 800" stroke="#edfff2" stroke-width="1.2" opacity="0.55"/><path d="M 433.04 0 L 848 800" stroke="#35ef83" stroke-width="9.2" opacity="0.24" filter="url(#glow)"/><path d="M 433.04 0 L 848 800" stroke="#9affbf" stroke-width="4.14" opacity="0.52"/><path d="M 433.04 0 L 848 800" stroke="#edfff2" stroke-width="2.3" opacity="0.8"/><path d="M 449.47 0 L 895 800" stroke="#35ef83" stroke-width="3.2" opacity="0.12" filter="url(#glow)"/><path d="M 449.47 0 L 895 800" stroke="#9affbf" stroke-width="1.4400000000000002" opacity="0.26"/><path d="M 449.47 0 L 895 800" stroke="#edfff2" stroke-width="0.8" opacity="0.4"/><path d="M 465.90 0 L 942 800" stroke="#35ef83" stroke-width="12.4" opacity="0.27" filter="url(#glow)"/><path d="M 465.90 0 L 942 800" stroke="#9affbf" stroke-width="5.58" opacity="0.5850000000000001"/><path d="M 465.90 0 L 942 800" stroke="#edfff2" stroke-width="3.1" opacity="0.9"/><path d="M 474.99 0 L 968 800" stroke="#35ef83" stroke-width="6.0" opacity="0.165" filter="url(#glow)"/><path d="M 474.99 0 L 968 800" stroke="#9affbf" stroke-width="2.7" opacity="0.35750000000000004"/><path d="M 474.99 0 L 968 800" stroke="#edfff2" stroke-width="1.5" opacity="0.55"/></svg>