<svg xmlns="http://www.w3.org/2000/svg" width="640" height="800" viewBox="0 0 640 800" preserveAspectRatio="none"><defs><linearGradient id="beam" x1="0" x2="1"><stop stop-color="#af6cff" stop-opacity=".48"/><stop offset=".16" stop-color="#efdfff" stop-opacity=".52"/><stop offset=".5" stop-color="#fffaff" stop-opacity=".62"/><stop offset=".84" stop-color="#efdfff" stop-opacity=".52"/><stop offset="1" stop-color="#af6cff" stop-opacity=".48"/></linearGradient><linearGradient id="rise" x1="0" y1="1" x2="0" y2="0"><stop stop-color="#fff4ff" stop-opacity=".38"/><stop offset=".55" stop-color="#f2dfff" stop-opacity=".04"/><stop offset="1" stop-color="#f2dfff" stop-opacity="0"/></linearGradient></defs><path d="M16 0H624V800H16Z" fill="url(#beam)"/><path d="M16 0H624V800H16Z" fill="url(#rise)"/><path d="M16 0V800 M624 0V800" stroke="#542098" stroke-opacity=".95" stroke-width="12"/><path d="M24 0V800 M616 0V800" stroke="#bb7eff" stroke-opacity=".9" stroke-width="7"/><path d="M29 0V800 M611 0V800" stroke="#fff3ff" stroke-opacity=".8" stroke-width="3"/><path d="M485 271v83" stroke="#e9d4ff" stroke-width="1" opacity="0.35"/><path d="M132 445v76" stroke="#e9d4ff" stroke-width="1" opacity="0.49"/><path d="M581 780v70" stroke="#e9d4ff" stroke-width="2" opacity="0.34"/><path d="M144 776v45" stroke="#e9d4ff" stroke-width="1" opacity="0.40"/><path d="M193 60v38" stroke="#e9d4ff" stroke-width="1" opacity="0.17"/><path d="M529 52v40" stroke="#e9d4ff" stroke-width="2" opacity="0.36"/><path d="M578 480v64" stroke="#e9d4ff" stroke-width="1" opacity="0.43"/><path d="M57 22v45" stroke="#e9d4ff" stroke-width="2" opacity="0.47"/><path d="M44 670v58" stroke="#e9d4ff" stroke-width="1" opacity="0.25"/><path d="M566 250v13" stroke="#e9d4ff" stroke-width="1" opacity="0.37"/><path d="M603 324v14" stroke="#e9d4ff" stroke-width="1" opacity="0.37"/><path d="M59 380v20" stroke="#e9d4ff" stroke-width="1" opacity="0.43"/><path d="M168 89v73" stroke="#e9d4ff" stroke-width="1" opacity="0.44"/><path d="M123 265v52" stroke="#e9d4ff" stroke-width="1" opacity="0.30"/><path d="M109 124v51" stroke="#e9d4ff" stroke-width="1" opacity="0.35"/><path d="M186 530v80" stroke="#e9d4ff" stroke-width="1" opacity="0.42"/><path d="M323 71v21" stroke="#e9d4ff" stroke-width="1" opacity="0.21"/><path d="M172 185v69" stroke="#e9d4ff" stroke-width="2" opacity="0.24"/><path d="M408 558v24" stroke="#e9d4ff" stroke-width="1" opacity="0.16"/><path d="M209 695v40" stroke="#e9d4ff" stroke-width="1" opacity="0.33"/><path d="M362 671v23" stroke="#e9d4ff" stroke-width="2" opacity="0.21"/><path d="M532 242v38" stroke="#e9d4ff" stroke-width="2" opacity="0.41"/><path d="M264 461v50" stroke="#e9d4ff" stroke-width="1" opacity="0.16"/><path d="M570 745v76" stroke="#e9d4ff" stroke-width="2" opacity="0.27"/><path d="M555 309v30" stroke="#e9d4ff" stroke-width="1" opacity="0.24"/><path d="M507 472v80" stroke="#e9d4ff" stroke-width="1" opacity="0.31"/><path d="M324 448v25" stroke="#e9d4ff" stroke-width="1" opacity="0.35"/><path d="M380 167v55" stroke="#e9d4ff" stroke-width="2" opacity="0.18"/><path d="M534 398v48" stroke="#e9d4ff" stroke-width="1" opacity="0.28"/><path d="M317 630v85" stroke="#e9d4ff" stroke-width="2" opacity="0.36"/><path d="M243 416v19" stroke="#e9d4ff" stroke-width="2" opacity="0.33"/><path d="M221 286v72" stroke="#e9d4ff" stroke-width="1" opacity="0.25"/><path d="M192 636v54" stroke="#e9d4ff" stroke-width="1" opacity="0.29"/><path d="M350 35v54" stroke="#e9d4ff" stroke-width="1" opacity="0.43"/><path d="M277 575v84" stroke="#e9d4ff" stroke-width="1" opacity="0.39"/><path d="M85 112v38" stroke="#e9d4ff" stroke-width="1" opacity="0.33"/></svg>