<svg xmlns="http://www.w3.org/2000/svg" viewBox="0 0 400 220"><defs><linearGradient id="w"><stop stop-color="#ace9ff" stop-opacity="0"/><stop offset=".7" stop-color="#d7f4ff" stop-opacity=".7"/><stop offset="1" stop-color="white"/></linearGradient></defs><g fill="none" stroke="url(#w)" stroke-linecap="round"><path d="M25 71 Q167 20 291 69 Q347 104 285 145 Q174 185 60 145" stroke-width="9"/><path d="M9 122 Q162 160 286 119 Q337 96 288 69" stroke-width="5"/><path d="M58 43 Q219 1 327 78 M57 180 Q228 212 339 126" stroke-width="3"/><path d="M107 97 362 97 M115 116 384 116" stroke-width="3"/></g><g fill="#e7fbff"><path d="m336 49 32-8-21 19zM347 157l36 15-32-1zM294 25l23-10-12 15z"/></g></svg>